<?xml version="1.0" encoding="utf-8"?>
<!-- Generator: Adobe Illustrator 16.0.0, SVG Export Plug-In . SVG Version: 6.00 Build 0)  -->
<!DOCTYPE svg PUBLIC "-//W3C//DTD SVG 1.1//EN" "http://www.w3.org/Graphics/SVG/1.1/DTD/svg11.dtd">
<svg version="1.1" id="Layer_1" xmlns="http://www.w3.org/2000/svg" xmlns:xlink="http://www.w3.org/1999/xlink" x="0px" y="0px"
	 width="100px" height="100px" viewBox="0 0 100 100" enable-background="new 0 0 100 100" xml:space="preserve">
<g>
	<polygon fill="#333333" points="84.47,71.881 41.089,63.166 22.55,20.716 16.86,19.39 37.206,65.967 86.276,75.828 	"/>
	<polygon fill="#999999" points="79.303,79.247 35.923,70.532 17.384,28.085 11.694,26.759 32.04,73.334 81.109,83.195 	"/>
	<polygon fill="#E6E6E6" points="74.832,85.324 31.452,76.605 12.913,34.164 7.223,32.834 27.569,79.412 76.639,89.272 	"/>
	
		<radialGradient id="SVGID_1_" cx="-1109.708" cy="442.8164" r="1.0251" gradientTransform="matrix(-85.0702 79.63 79.63 85.0702 -129582.5703 50738.5117)" gradientUnits="userSpaceOnUse">
		<stop  offset="0" style="stop-color:#00ADEE"/>
		<stop  offset="0.0053" style="stop-color:#03ADED"/>
		<stop  offset="0.0559" style="stop-color:#18ABE6"/>
		<stop  offset="0.1052" style="stop-color:#25A9E2"/>
		<stop  offset="0.1515" style="stop-color:#29A9E1"/>
		<stop  offset="0.3273" style="stop-color:#1B75BB"/>
		<stop  offset="0.5212" style="stop-color:#2A398F"/>
		<stop  offset="0.7576" style="stop-color:#1C1651"/>
		<stop  offset="1" style="stop-color:#120742"/>
	</radialGradient>
	<path fill="url(#SVGID_1_)" d="M92.324,69.298l0.006-0.007L71.72,24.238l-36.932-8.61c-0.665,1.897-0.438,7.707-0.038,9.437
		c-3.354,0-5.775,0.486-6.363,0.333l14.874,34.04L92.324,69.298z"/>
	
		<linearGradient id="SVGID_2_" gradientUnits="userSpaceOnUse" x1="-1093.1416" y1="422.791" x2="-1092.1156" y2="422.791" gradientTransform="matrix(-8.364 -8.4771 -8.4771 8.364 -5528.6572 -12776.8613)">
		<stop  offset="0" style="stop-color:#231F20"/>
		<stop  offset="0.0896" style="stop-color:#231F20"/>
		<stop  offset="1" style="stop-color:#231F20"/>
	</linearGradient>
	<path fill="url(#SVGID_2_)" d="M27.831,22.396c-0.006,0.783,0.115,1.653,0.391,2.622c-0.274-0.959-0.391-1.822-0.389-2.598
		C27.833,22.411,27.831,22.402,27.831,22.396z"/>
	<path fill="#808080" d="M27.831,22.396c0-0.009,0.002-0.015,0.002-0.023c0.053-5.463,6.154-6.643,6.884-6.764l-11.803-2.751
		l5.307,12.159C27.946,24.049,27.825,23.179,27.831,22.396z"/>
	
		<linearGradient id="SVGID_3_" gradientUnits="userSpaceOnUse" x1="-1093.1411" y1="422.3857" x2="-1092.1183" y2="422.3857" gradientTransform="matrix(-8.364 -8.4771 -8.4771 8.364 -5528.6572 -12776.8613)">
		<stop  offset="0" style="stop-color:#231F20"/>
		<stop  offset="0.0896" style="stop-color:#231F20"/>
		<stop  offset="1" style="stop-color:#231F20"/>
	</linearGradient>
	<path fill="url(#SVGID_3_)" d="M27.831,22.396c0-0.009,0.002-0.015,0.002-0.023c0.053-5.463,6.154-6.643,6.884-6.764l-11.803-2.751
		l5.307,12.159C27.946,24.049,27.825,23.179,27.831,22.396z"/>
	<path fill="#E6E6E6" d="M34.799,15.597c0,0-0.029,0.006-0.076,0.015l0.064,0.015C34.794,15.618,34.794,15.606,34.799,15.597z"/>
	<path fill="#E6E6E6" d="M28.328,25.379c0,0,0.021,0.006,0.059,0.015l-0.165-0.376C28.257,25.138,28.287,25.255,28.328,25.379z"/>
	
		<linearGradient id="SVGID_4_" gradientUnits="userSpaceOnUse" x1="-1125.7417" y1="460.2607" x2="-1125.7417" y2="460.2607" gradientTransform="matrix(5.9935 11.2714 11.2714 -5.9935 1596.3024 15473.9893)">
		<stop  offset="0" style="stop-color:#231F20"/>
		<stop  offset="1" style="stop-color:#231F20"/>
	</linearGradient>
	<polygon fill="url(#SVGID_4_)" points="36.953,26.741 36.953,26.738 36.947,26.741 	"/>
	
		<linearGradient id="SVGID_5_" gradientUnits="userSpaceOnUse" x1="-1095.2769" y1="425.8789" x2="-1095.2744" y2="425.8789" gradientTransform="matrix(-10.1732 -9.8341 -9.8341 10.1732 -6926.4912 -15081.207)">
		<stop  offset="0" style="stop-color:#F1F1F2"/>
		<stop  offset="0.0364" style="stop-color:#F1F1F2"/>
		<stop  offset="1" style="stop-color:#929497"/>
	</linearGradient>
	<path fill="url(#SVGID_5_)" d="M27.833,22.419v-0.046c0,0.008-0.002,0.014-0.002,0.023C27.831,22.402,27.833,22.411,27.833,22.419z
		"/>
	<path fill="#808080" d="M27.831,22.396c0-0.009,0.002-0.015,0.002-0.023l0,0C27.833,22.381,27.831,22.387,27.831,22.396z"/>
	
		<linearGradient id="SVGID_6_" gradientUnits="userSpaceOnUse" x1="-1095.2759" y1="425.8789" x2="-1095.2744" y2="425.8789" gradientTransform="matrix(-10.1732 -9.8341 -9.8341 10.1732 -6926.4912 -15081.207)">
		<stop  offset="0" style="stop-color:#F1F1F2"/>
		<stop  offset="0.0364" style="stop-color:#F1F1F2"/>
		<stop  offset="1" style="stop-color:#929497"/>
	</linearGradient>
	<path fill="url(#SVGID_6_)" d="M27.831,22.396c0-0.009,0.002-0.015,0.002-0.023l0,0C27.833,22.381,27.831,22.387,27.831,22.396z"/>
	
		<linearGradient id="SVGID_7_" gradientUnits="userSpaceOnUse" x1="-1126.2271" y1="460.1191" x2="-1125.2046" y2="460.1191" gradientTransform="matrix(5.9935 11.2714 11.2714 -5.9935 1596.3024 15473.9893)">
		<stop  offset="0" style="stop-color:#231F20"/>
		<stop  offset="1" style="stop-color:#231F20"/>
	</linearGradient>
	<path fill="url(#SVGID_7_)" d="M36.947,26.741l0.006-0.003c-0.409-1.733-2.831-9.214-2.166-11.111l-0.07-0.015
		c0.006,0,0.003,0,0.003,0l-0.003-0.003c-0.73,0.123-6.831,1.303-6.884,6.764v0.046c-0.002,0.776,0.115,1.639,0.389,2.598
		l0.171,0.379c-0.006,0-0.003,0-0.003,0h-0.003C28.975,25.55,33.591,26.741,36.947,26.741z"/>
	
		<linearGradient id="SVGID_8_" gradientUnits="userSpaceOnUse" x1="-1095.8438" y1="425.5986" x2="-1094.8177" y2="425.5986" gradientTransform="matrix(-10.1732 -9.8341 -9.8341 10.1732 -6926.4912 -15081.207)">
		<stop  offset="0" style="stop-color:#F1F1F2"/>
		<stop  offset="0.0364" style="stop-color:#F1F1F2"/>
		<stop  offset="1" style="stop-color:#929497"/>
	</linearGradient>
	<path fill="url(#SVGID_8_)" d="M36.947,26.741l0.006-0.003c-0.409-1.733-2.831-9.214-2.166-11.111l-0.07-0.015
		c0.006,0,0.003,0,0.003,0l-0.003-0.003c-0.73,0.123-6.831,1.303-6.884,6.764v0.046c-0.002,0.776,0.115,1.639,0.389,2.598
		l0.171,0.379c-0.006,0-0.003,0-0.003,0h-0.003C28.975,25.55,33.591,26.741,36.947,26.741z"/>
	<path fill="#808080" d="M27.833,22.373L27.833,22.373c0.053-5.46,6.154-6.641,6.884-6.764C33.987,15.73,27.886,16.91,27.833,22.373
		z"/>
	
		<linearGradient id="SVGID_9_" gradientUnits="userSpaceOnUse" x1="-1126.2261" y1="460.1533" x2="-1125.2017" y2="460.1533" gradientTransform="matrix(5.9935 11.2714 11.2714 -5.9935 1596.3024 15473.9893)">
		<stop  offset="0" style="stop-color:#231F20"/>
		<stop  offset="1" style="stop-color:#231F20"/>
	</linearGradient>
	<path fill="url(#SVGID_9_)" d="M27.833,22.373L27.833,22.373c0.053-5.46,6.154-6.641,6.884-6.764
		C33.987,15.73,27.886,16.91,27.833,22.373z"/>
	
		<linearGradient id="SVGID_10_" gradientUnits="userSpaceOnUse" x1="-1095.8398" y1="425.5371" x2="-1094.8195" y2="425.5371" gradientTransform="matrix(-10.1732 -9.8341 -9.8341 10.1732 -6926.4912 -15081.207)">
		<stop  offset="0" style="stop-color:#F1F1F2"/>
		<stop  offset="0.0364" style="stop-color:#F1F1F2"/>
		<stop  offset="1" style="stop-color:#929497"/>
	</linearGradient>
	<path fill="url(#SVGID_10_)" d="M27.833,22.373L27.833,22.373c0.053-5.46,6.154-6.641,6.884-6.764
		C33.987,15.73,27.886,16.91,27.833,22.373z"/>
	<path fill="#E6E6E6" d="M34.788,15.627l-0.064-0.015c0,0,0,0-0.006,0L34.788,15.627z"/>
	
		<linearGradient id="SVGID_11_" gradientUnits="userSpaceOnUse" x1="-1126.1094" y1="460.5176" x2="-1124.7512" y2="460.5176" gradientTransform="matrix(5.9935 11.2714 11.2714 -5.9935 1596.3024 15473.9893)">
		<stop  offset="0" style="stop-color:#231F20"/>
		<stop  offset="1" style="stop-color:#231F20"/>
	</linearGradient>
	<path fill="url(#SVGID_11_)" d="M34.788,15.627l-0.064-0.015c0,0,0,0-0.006,0L34.788,15.627z"/>
	
		<linearGradient id="SVGID_12_" gradientUnits="userSpaceOnUse" x1="-1096.1143" y1="425.1953" x2="-1094.5836" y2="425.1953" gradientTransform="matrix(-10.1732 -9.8341 -9.8341 10.1732 -6926.4912 -15081.207)">
		<stop  offset="0" style="stop-color:#F1F1F2"/>
		<stop  offset="0.0364" style="stop-color:#F1F1F2"/>
		<stop  offset="1" style="stop-color:#929497"/>
	</linearGradient>
	<path fill="url(#SVGID_12_)" d="M34.788,15.627l-0.064-0.015c0,0,0,0-0.006,0L34.788,15.627z"/>
	<path fill="#E6E6E6" d="M28.222,25.018l0.165,0.376c0,0,0,0.002,0.006,0.002L28.222,25.018z"/>
	
		<linearGradient id="SVGID_13_" gradientUnits="userSpaceOnUse" x1="-1126.2344" y1="459.7188" x2="-1125.0969" y2="459.7188" gradientTransform="matrix(5.9935 11.2714 11.2714 -5.9935 1596.3024 15473.9893)">
		<stop  offset="0" style="stop-color:#231F20"/>
		<stop  offset="1" style="stop-color:#231F20"/>
	</linearGradient>
	<path fill="url(#SVGID_13_)" d="M28.222,25.018l0.165,0.376c0,0,0,0.002,0.006,0.002L28.222,25.018z"/>
	
		<linearGradient id="SVGID_14_" gradientUnits="userSpaceOnUse" x1="-1095.8154" y1="425.998" x2="-1094.863" y2="425.998" gradientTransform="matrix(-10.1732 -9.8341 -9.8341 10.1732 -6926.4912 -15081.207)">
		<stop  offset="0" style="stop-color:#F1F1F2"/>
		<stop  offset="0.0364" style="stop-color:#F1F1F2"/>
		<stop  offset="1" style="stop-color:#929497"/>
	</linearGradient>
	<path fill="url(#SVGID_14_)" d="M28.222,25.018l0.165,0.376c0,0,0,0.002,0.006,0.002L28.222,25.018z"/>
</g>
</svg>
